<svg data-v-423bf9ae="" xmlns="http://www.w3.org/2000/svg" viewBox="0 0 417 90" class="iconLeft"><!----><!----><!----><g data-v-423bf9ae="" id="e5bf267d-5886-4d1d-9d86-f1c498bbfe4f" fill="black" transform="matrix(5.676442926425062,0,0,5.676442926425062,106.87795519777819,15.85146799271644)"><path d="M0.55 0.43L0.55 0.67C1.16 0.67 1.74 1.05 1.74 1.92L1.74 8.60C1.74 9.55 1.15 10.05 0.55 10.05L0.55 10.29L4.96 10.29L4.96 10.05C4.37 10.05 3.77 9.55 3.77 8.60L3.77 1.92C3.77 1.05 4.35 0.67 4.96 0.67L4.96 0.43ZM16.38 10.05C15.88 9.93 15.81 9.35 15.81 8.58L15.81 5.82C15.81 4.13 15.13 3.70 14.04 3.70C13.16 3.70 12.21 4.33 11.91 5.18C11.75 4.14 11.14 3.70 10.16 3.70C9.28 3.70 8.43 4.33 8.05 5.14L8.05 3.70L5.60 4.26L5.60 4.49C6.17 4.80 6.30 5.05 6.30 5.54L6.30 8.61C6.30 9.32 6.29 9.90 5.75 10.05L5.75 10.29L8.62 10.29L8.62 10.05C8.13 9.91 8.05 9.38 8.05 8.61L8.05 5.85C8.05 5.35 8.65 4.70 9.17 4.70C9.80 4.70 10.18 5.08 10.18 5.87L10.18 8.58C10.18 9.30 10.15 9.90 9.62 10.05L9.62 10.29L12.50 10.29L12.50 10.05C12.00 9.93 11.93 9.35 11.93 8.58L11.93 5.89L11.93 5.89C11.93 5.33 12.52 4.70 13.03 4.70C13.66 4.70 14.06 5.08 14.06 5.87L14.06 8.58C14.06 9.30 14.03 9.90 13.50 10.05L13.50 10.29L16.38 10.29L16.38 10.05ZM20.50 3.70C18.37 3.70 17.16 5.21 17.16 7.06C17.16 8.89 18.37 10.42 20.50 10.42C22.64 10.42 23.83 8.89 23.83 7.06C23.83 5.21 22.64 3.70 20.50 3.70ZM20.50 10.18C19.49 10.18 19.22 9.59 19.22 7.06C19.22 4.52 19.49 3.93 20.50 3.93C21.50 3.93 21.76 4.52 21.76 7.06C21.76 9.59 21.50 10.18 20.50 10.18ZM24.64 0.43L24.64 3.25L24.88 3.25C24.99 0.74 27.96 0.67 27.96 0.67L28.22 0.67L28.22 8.60C28.22 9.55 27.62 10.05 27.03 10.05L27.03 10.29L31.44 10.29L31.44 10.05C30.86 10.05 30.25 9.55 30.25 8.60L30.25 0.67L30.52 0.67C30.52 0.67 33.50 0.74 33.61 3.25L33.85 3.25L33.85 0.43L24.64 0.43ZM35.42 6.69C35.42 5.35 35.99 3.93 36.82 3.93C37.59 3.93 38.16 4.93 38.16 6.69ZM36.89 3.70C34.96 3.70 33.61 5.11 33.61 7.08C33.61 8.72 34.87 10.42 36.71 10.42C38.58 10.42 39.41 9.31 39.63 8.58L39.40 8.46C39.05 9.11 37.93 9.39 37.17 9.23C36.23 9.02 35.53 8.30 35.42 6.93L39.87 6.93C39.87 4.75 38.92 3.70 36.89 3.70ZM46.75 8.48C46.42 8.95 45.32 9.32 44.62 9.17C43.65 8.96 42.84 8.29 42.84 6.78C42.84 4.37 44.20 3.93 44.70 3.93C45.26 3.93 45.57 4.17 45.44 4.23C45.23 4.34 45.07 4.52 45.01 4.79C44.87 5.28 45.16 5.80 45.67 5.92C46.17 6.06 46.68 5.74 46.82 5.25C46.91 4.91 46.77 4.52 46.54 4.31C46.30 4.10 45.70 3.70 44.70 3.70C42.31 3.70 41.08 5.42 41.08 7.03C41.08 8.67 42.32 10.42 44.16 10.42C45.91 10.42 46.75 9.32 46.94 8.61ZM53.94 8.57L53.94 5.87C53.94 4.19 53.30 3.70 52.18 3.70C51.31 3.70 50.13 4.47 49.87 5.21L49.87-0.15L47.42 0.43L47.42 0.67C47.98 0.88 48.12 1.02 48.12 1.51L48.12 8.57C48.12 9.28 48.09 9.88 47.56 10.04L47.56 10.29L50.44 10.29L50.44 10.04C49.94 9.91 49.87 9.34 49.87 8.57L49.87 5.59C50.16 5.03 50.64 4.75 51.03 4.75C51.84 4.75 52.21 5.12 52.21 5.92L52.21 8.57C52.21 9.28 52.18 9.90 51.65 10.05L51.65 10.29L54.52 10.29L54.52 10.05C54.03 9.93 53.94 9.34 53.94 8.57Z"></path></g><!----><g data-v-423bf9ae="" id="2285a4c4-a1d4-49f1-b928-3e81d23cd50d" transform="matrix(2.8125,0,0,2.8125,0,0)" stroke="none" fill="black"><path d="M0 16l16 16 16-16L16 0 0 16zm16 13.172L2.828 16 16 2.828 29.172 16 16 29.172z"></path><path d="M14.751 9.991v4.76h-2.262v-4.76H9.991v12.018h2.498v-4.76h2.262v4.76h2.498v-4.76h2.262v4.76h2.498V9.991h-2.498v4.76h-2.262v-4.76z"></path></g><!----></svg>